<svg xmlns="http://www.w3.org/2000/svg" xmlns:xlink="http://www.w3.org/1999/xlink" width="791.283" height="926.164" viewBox="0 0 791.283 926.164">
  <defs>
    <filter id="Path_102" x="0" y="0" width="624.758" height="606.822" filterUnits="userSpaceOnUse">
      <feOffset dy="4" input="SourceAlpha"/>
      <feGaussianBlur stdDeviation="5.5" result="blur"/>
      <feFlood flood-opacity="0.161"/>
      <feComposite operator="in" in2="blur"/>
      <feComposite in="SourceGraphic"/>
    </filter>
    <filter id="Path_26" x="517.035" y="529.968" width="274.248" height="396.196" filterUnits="userSpaceOnUse">
      <feOffset dy="3" input="SourceAlpha"/>
      <feGaussianBlur stdDeviation="5.5" result="blur-2"/>
      <feFlood flood-opacity="0.161"/>
      <feComposite operator="in" in2="blur-2"/>
      <feComposite in="SourceGraphic"/>
    </filter>
    <filter id="Path_11" x="547.134" y="426.694" width="171.044" height="167.651" filterUnits="userSpaceOnUse">
      <feOffset dy="4" input="SourceAlpha"/>
      <feGaussianBlur stdDeviation="5.5" result="blur-3"/>
      <feFlood flood-opacity="0.161"/>
      <feComposite operator="in" in2="blur-3"/>
      <feComposite in="SourceGraphic"/>
    </filter>
  </defs>
  <g id="Group_507" data-name="Group 507" transform="translate(365.563 351.012)">
    <g transform="matrix(1, 0, 0, 1, -365.56, -351.01)" filter="url(#Path_102)">
      <path id="Path_102-2" data-name="Path 102" d="M0,0,405.221,382.541" transform="translate(76.99 150.31) rotate(-11)" fill="#cbcbcb" stroke="#cbcbcb" stroke-linecap="round" stroke-width="73"/>
    </g>
    <g transform="matrix(1, 0, 0, 1, -365.56, -351.01)" filter="url(#Path_26)">
      <path id="Path_26-2" data-name="Path 26" d="M115.015-37.526C163.053,38.1,222.19,112.012,222.19,172.671S169.757,282.505,105.079,282.505,10.3,233.331,10.3,172.671c0-30.33,22.2-74.848,45.494-124.591C74.847,7.376,98.352-39.483,97.343-63.373,100.709-65.693,112.091-43.132,115.015-37.526Z" transform="matrix(1, 0.09, -0.09, 1, 547.9, 605.87)" fill="#fff"/>
    </g>
    <g transform="matrix(1, 0, 0, 1, -365.56, -351.01)" filter="url(#Path_11)">
      <g id="Path_11-2" data-name="Path 11" transform="translate(563.63 488.45) rotate(-28)" fill="#cbcbcb">
        <path d="M 45.01783752441406 96.21477508544922 C 38.00695419311523 96.21477508544922 31.59124946594238 95.05300140380859 25.94892883300781 92.76172637939453 C 20.52884864807129 90.56069946289062 15.83999538421631 87.327392578125 12.01263523101807 83.15161895751953 C 8.26838207244873 79.0665283203125 5.381622314453125 74.11900329589844 3.432569026947021 68.44648742675781 C 1.4866623878479 62.78311157226562 0.4999956786632538 56.4705924987793 0.4999956786632538 49.68424606323242 C 0.4999956786632538 43.04763031005859 1.872408986091614 36.60953903198242 4.579129219055176 30.54877853393555 C 7.194462299346924 24.69265747070312 10.93911552429199 19.43276405334473 15.70907592773438 14.91520500183105 C 20.48095512390137 10.39584445953369 26.03815650939941 6.847444534301758 32.22630310058594 4.36857795715332 C 38.63447570800781 1.801578044891357 45.44218063354492 0.5000047087669373 52.46028900146484 0.5000047087669373 C 59.47840881347656 0.5000047087669373 66.28610229492188 1.801578044891357 72.69427490234375 4.36857795715332 C 78.88242340087891 6.847444534301758 84.43962097167969 10.39584445953369 89.21150207519531 14.91520500183105 C 93.98146057128906 19.43276405334473 97.72612762451172 24.69265747070312 100.3414459228516 30.54877853393555 C 103.0481719970703 36.60953903198242 104.4205856323242 43.04763031005859 104.4205856323242 49.68424606323242 C 104.4205856323242 55.77661895751953 102.4797592163086 60.62793731689453 98.31269073486328 64.95161437988281 C 94.53549957275391 68.87078094482422 89.30518341064453 71.97024536132812 83.76775360107422 75.25168609619141 C 81.08065032958984 76.84404754638672 78.30206298828125 78.49061584472656 75.54703521728516 80.31120300292969 C 72.80331420898438 82.12770080566406 69.68738555908203 83.6865234375 66.38848876953125 85.33686828613281 C 62.96340942382812 87.05036163330078 59.42171478271484 88.82218933105469 56.10079574584961 90.99651336669922 C 55.3936767578125 91.46903228759766 50.86372756958008 93.79264831542969 48.56667709350586 94.95564270019531 L 48.55742263793945 94.9603271484375 L 48.54837036132812 94.96539306640625 C 47.9266471862793 95.31285858154297 46.08014297485352 96.21477508544922 45.01783752441406 96.21477508544922 Z" stroke="none"/>
        <path d="M 52.46028900146484 0.9999923706054688 C 45.50616073608398 0.9999923706054688 38.76101684570312 2.289505004882812 32.4122314453125 4.832717895507812 C 26.28287506103516 7.288032531738281 20.77880096435547 10.80240631103516 16.05290222167969 15.27823638916016 C 11.33083343505859 19.75041961669922 7.624099731445312 24.95677947998047 5.035675048828125 30.75267791748047 C 2.357803344726562 36.74884796142578 1 43.11834716796875 1 49.68423461914062 C 1 56.41517639160156 1.977531433105469 62.67303466796875 3.905448913574219 68.28398895263672 C 5.83203125 73.89112091064453 8.683700561523438 78.77964782714844 12.38123321533203 82.81376647949219 C 16.15808868408203 86.9344482421875 20.78621673583984 90.12556457519531 26.13706207275391 92.2984619140625 C 31.71932983398438 94.56536102294922 38.07174682617188 95.71477508544922 45.0178337097168 95.71477508544922 C 45.86437606811523 95.71477508544922 47.48316192626953 94.98731994628906 48.30420303344727 94.52904510498047 L 48.32230377197266 94.5189208984375 L 48.34081649780273 94.50955200195312 C 50.99958801269531 93.16340637207031 55.18524551391602 91.00693511962891 55.81904602050781 90.58338928222656 L 55.82295989990234 90.58078002929688 L 55.826904296875 90.57819366455078 C 59.17208862304688 88.38797760009766 62.72694778442383 86.60957336425781 66.16477966308594 84.88970947265625 C 69.44974517822266 83.24632263183594 72.55253601074219 81.69407653808594 75.27139282226562 79.89405059814453 C 78.03662109375 78.06673431396484 80.82054138183594 76.4169921875 83.5128173828125 74.82156372070312 C 89.02033233642578 71.55784606933594 94.22238922119141 68.47513580322266 97.95265960693359 64.60466003417969 C 102.0242309570312 60.38006210327148 103.9205780029297 55.63899230957031 103.9205780029297 49.68423461914062 C 103.9205780029297 43.11834716796875 102.5627746582031 36.74884796142578 99.88490295410156 30.75267791748047 C 97.29647827148438 24.95677947998047 93.58974456787109 19.75041961669922 88.86769104003906 15.27823638916016 C 84.14177703857422 10.80240631103516 78.63770294189453 7.288032531738281 72.50834655761719 4.832717895507812 C 66.15956115722656 2.289505004882812 59.4144172668457 0.9999923706054688 52.46028900146484 0.9999923706054688 M 52.46028900146484 -7.62939453125e-06 C 81.43331909179688 -7.62939453125e-06 104.9205780029297 22.24440765380859 104.9205780029297 49.68423461914062 C 104.9205780029297 66.55974578857422 90.02293395996094 71.34453582763672 75.82270050048828 80.72834777832031 C 70.16452026367188 84.474365234375 62.83001708984375 87.18827819824219 56.37467575073242 91.41481781005859 C 55.46059036254883 92.02568054199219 48.79251861572266 95.40171813964844 48.79251861572266 95.40171813964844 C 48.79251861572266 95.40171813964844 46.44593048095703 96.71477508544922 45.0178337097168 96.71477508544922 C 16.04481506347656 96.71477508544922 0 77.12409210205078 0 49.68423461914062 C 0 22.24440765380859 23.48727416992188 -7.62939453125e-06 52.46028900146484 -7.62939453125e-06 Z" stroke="none" fill="#cbcbcb"/>
      </g>
    </g>
    <g id="Path_53" data-name="Path 53" transform="matrix(0.839, 0.545, -0.545, 0.839, 213.373, 87.079)" fill="#cbcbcb">
      <path d="M 44.79909896850586 53.33249664306641 L 0.4999994933605194 53.33249664306641 L 0.4999994933605194 0.4999964237213135 L 44.79909896850586 0.4999964237213135 L 44.79909896850586 53.33249664306641 Z" stroke="none"/>
      <path d="M 1 0.9999961853027344 L 1 52.83249664306641 L 44.29909896850586 52.83249664306641 L 44.29909896850586 0.9999961853027344 L 1 0.9999961853027344 M 0 -3.814697265625e-06 L 45.29909896850586 -3.814697265625e-06 L 45.29909896850586 53.83249664306641 L 0 53.83249664306641 L 0 -3.814697265625e-06 Z" stroke="none" fill="#cbcbcb"/>
    </g>
  </g>
</svg>
