<svg xmlns="http://www.w3.org/2000/svg" width="1128" height="3355.604" viewBox="0 0 1128 3355.604">
  <g id="Group_573" data-name="Group 573" transform="translate(-637 102.603)">
    <path id="Path_114" data-name="Path 114" d="M0,43.787v458.1" transform="translate(1201 53.61)" fill="rgba(0,0,0,0)" stroke="#b1b1b1" stroke-linecap="round" stroke-width="400"/>
    <path id="Rectangle_382" data-name="Rectangle 382" d="M385,0H743a385,385,0,0,1,385,385V2233a0,0,0,0,1,0,0H0a0,0,0,0,1,0,0V385A385,385,0,0,1,385,0Z" transform="translate(637 1020)" fill="#57394a"/>
    <path id="Path_112" data-name="Path 112" d="M0,0H461s-24.943,61.772-24.943,138.128S461,305.424,461,305.424H0s23.407-90.94,23.407-167.3S0,0,0,0Z" transform="translate(970.5 723.162)" fill="#57394a"/>
    <path id="Path_113" data-name="Path 113" d="M0,0H581V246H0Z" transform="translate(910.5 500)" fill="#d6d6d6"/>
  </g>
</svg>
